<svg width="49" height="48" viewBox="0 0 49 48" fill="none" xmlns="http://www.w3.org/2000/svg">
<path d="M32.5771 16H34.9228C37.0268 16 38.7794 17.5946 38.9542 19.6678L40.3027 35.6678C40.4993 37.9998 38.6381 40 36.2713 40H12.7013C10.3346 40 8.47335 37.9998 8.66989 35.6678L10.0184 19.6678C10.1931 17.5946 11.9458 16 14.0498 16H16.3955M32.5771 16H16.3955M32.5771 16V14C32.5771 11.8783 31.7247 9.84344 30.2073 8.34314C28.6901 6.84286 26.6322 6 24.4863 6C22.3404 6 20.2826 6.84286 18.7653 8.34314C17.248 9.84344 16.3955 11.8783 16.3955 14V16M32.5771 16V24M16.3955 16V24" stroke="black" stroke-width="2" stroke-linecap="round" stroke-linejoin="round"/>
</svg>
