<svg width="40" height="40" viewBox="0 0 40 40" fill="none" xmlns="http://www.w3.org/2000/svg">
<path fill-rule="evenodd" clip-rule="evenodd" d="M3.33334 10C3.33334 6.31814 6.31811 3.33337 10 3.33337H30C33.6818 3.33337 36.6667 6.31814 36.6667 10V30C36.6667 33.6819 33.6818 36.6667 30 36.6667H10C6.31811 36.6667 3.33334 33.6819 3.33334 30V10ZM10 6.66671C8.15906 6.66671 6.66668 8.15909 6.66668 10V30C6.66668 31.841 8.15906 33.3334 10 33.3334H20V21.6667H18.3333C17.4128 21.6667 16.6667 20.9205 16.6667 20C16.6667 19.0795 17.4128 18.3334 18.3333 18.3334H20V15.8334C20 12.6117 22.6117 10 25.8333 10H26.8333C27.7538 10 28.5 10.7462 28.5 11.6667C28.5 12.5872 27.7538 13.3334 26.8333 13.3334H25.8333C24.4527 13.3334 23.3333 14.4527 23.3333 15.8334V18.3334H26.8333C27.7538 18.3334 28.5 19.0795 28.5 20C28.5 20.9205 27.7538 21.6667 26.8333 21.6667H23.3333V33.3334H30C31.841 33.3334 33.3333 31.841 33.3333 30V10C33.3333 8.15909 31.841 6.66671 30 6.66671H10Z" fill="#E35A5A"/>
</svg>
