<svg width="111" height="111" viewBox="0 0 111 111" fill="none" xmlns="http://www.w3.org/2000/svg">
<path d="M102.227 26.9518L99.3679 42.8793C95.2609 46.2015 90.8388 52.3238 88.5008 56.8084L86.5072 60.6325L90.7141 59.684L94.9121 58.7376L103.94 85.7628C99.8079 88.5178 97.8524 91.7909 96.1189 94.6924C96.0235 94.852 95.9289 95.0105 95.8345 95.1676C87.4501 92.0505 80.3343 90.4781 75.0357 91.4651C72.1257 92.0072 69.6817 93.3361 67.9502 95.6378C66.5287 97.5274 65.6942 99.9311 65.3536 102.779C60.654 103.214 54.1073 103.528 47.5401 102.641C40.5031 101.692 33.7268 99.4024 29.0956 94.6999C31.847 83.9721 33.512 72.4175 31.1813 62.3314C28.7876 51.9724 22.2112 43.3283 8.93248 38.7364L7.37073 33.4239L29.2466 34.3659L31.7638 34.4743L31.2982 31.9981L29.2518 21.1161L31.2132 20.9223L33.3506 24.7746L33.9938 25.9338L35.3119 25.793C42.1797 25.0592 47.4634 22.5539 51.0799 18.8663C54.2989 15.5839 56.0969 11.4648 56.5631 7.09667C57.0378 7.01272 57.5824 6.91726 58.137 6.82189C58.9355 6.68458 59.7468 6.5488 60.3974 6.44784C60.5221 6.42849 60.6394 6.41065 60.7484 6.39448C71.7119 16.6526 83.9925 25.0883 102.227 26.9518Z" stroke="#C0CF64" stroke-width="4"/>
</svg>
