<svg width="37" height="37" viewBox="0 0 37 37" fill="none" xmlns="http://www.w3.org/2000/svg">
<path fill-rule="evenodd" clip-rule="evenodd" d="M18.5 27.75C23.6086 27.75 27.75 23.6086 27.75 18.5C27.75 13.3914 23.6086 9.25 18.5 9.25C13.3914 9.25 9.25 13.3914 9.25 18.5C9.25 23.6086 13.3914 27.75 18.5 27.75ZM18.5 24.6667C21.9057 24.6667 24.6667 21.9057 24.6667 18.5C24.6667 15.0942 21.9057 12.3333 18.5 12.3333C15.0942 12.3333 12.3333 15.0942 12.3333 18.5C12.3333 21.9057 15.0942 24.6667 18.5 24.6667Z" fill="#E35A5A"/>
<path d="M27.75 7.70837C26.8985 7.70837 26.2083 8.39861 26.2083 9.25004C26.2083 10.1015 26.8985 10.7917 27.75 10.7917C28.6015 10.7917 29.2917 10.1015 29.2917 9.25004C29.2917 8.39861 28.6015 7.70837 27.75 7.70837Z" fill="#E35A5A"/>
<path fill-rule="evenodd" clip-rule="evenodd" d="M2.54984 6.59222C1.54166 8.5709 1.54166 11.1611 1.54166 16.3416V20.6583C1.54166 25.8388 1.54166 28.4291 2.54984 30.4076C3.43667 32.1482 4.85174 33.5633 6.59225 34.45C8.57093 35.4583 11.1612 35.4583 16.3417 35.4583H20.6583C25.8388 35.4583 28.4291 35.4583 30.4077 34.45C32.1482 33.5633 33.5633 32.1482 34.4501 30.4076C35.4583 28.4291 35.4583 25.8388 35.4583 20.6583V16.3416C35.4583 11.1611 35.4583 8.5709 34.4501 6.59222C33.5633 4.85171 32.1482 3.43664 30.4077 2.54981C28.4291 1.54163 25.8388 1.54163 20.6583 1.54163H16.3417C11.1612 1.54163 8.57093 1.54163 6.59225 2.54981C4.85174 3.43664 3.43667 4.85171 2.54984 6.59222ZM20.6583 4.62496H16.3417C13.7005 4.62496 11.9051 4.62736 10.5174 4.74074C9.16557 4.85118 8.47429 5.05137 7.99205 5.29708C6.83172 5.88831 5.88834 6.83169 5.29711 7.99202C5.0514 8.47425 4.85121 9.16554 4.74077 10.5173C4.62739 11.9051 4.62499 13.7005 4.62499 16.3416V20.6583C4.62499 23.2995 4.62739 25.0947 4.74077 26.4826C4.85121 27.8344 5.0514 28.5257 5.29711 29.008C5.88834 30.1682 6.83172 31.1116 7.99205 31.7028C8.47429 31.9485 9.16557 32.1488 10.5174 32.2592C11.9051 32.3725 13.7005 32.375 16.3417 32.375H20.6583C23.2995 32.375 25.0948 32.3725 26.4826 32.2592C27.8345 32.1488 28.5258 31.9485 29.008 31.7028C30.1682 31.1116 31.1116 30.1682 31.7028 29.008C31.9486 28.5257 32.1488 27.8344 32.2592 26.4826C32.3725 25.0947 32.375 23.2995 32.375 20.6583V16.3416C32.375 13.7005 32.3725 11.9051 32.2592 10.5173C32.1488 9.16554 31.9486 8.47425 31.7028 7.99202C31.1116 6.83169 30.1682 5.88831 29.008 5.29708C28.5258 5.05137 27.8345 4.85118 26.4826 4.74074C25.0948 4.62736 23.2995 4.62496 20.6583 4.62496Z" fill="#E35A5A"/>
</svg>
