<svg width="46" height="49" viewBox="0 0 46 49" fill="none" xmlns="http://www.w3.org/2000/svg">
<path d="M5.75 16.375L16.1957 23.7551C18.6548 25.4925 19.8845 26.3612 21.2133 26.6988C22.3878 26.997 23.6122 26.997 24.7867 26.6988C26.1155 26.3612 27.3453 25.4925 29.8044 23.7551L40.25 16.375M11.8833 38.7188H34.1167C36.2635 38.7188 37.3371 38.7187 38.157 38.2759C38.8782 37.8865 39.4647 37.265 39.8322 36.5006C40.25 35.6317 40.25 34.494 40.25 32.2188V16.7812C40.25 14.506 40.25 13.3684 39.8322 12.4994C39.4647 11.735 38.8782 11.1135 38.157 10.724C37.3371 10.2812 36.2635 10.2813 34.1167 10.2813H11.8833C9.73647 10.2813 8.66303 10.2812 7.84304 10.724C7.12174 11.1135 6.53532 11.735 6.16781 12.4994C5.75 13.3684 5.75 14.506 5.75 16.7812V32.2188C5.75 34.494 5.75 35.6317 6.16781 36.5006C6.53532 37.265 7.12174 37.8865 7.84304 38.2759C8.66303 38.7187 9.73646 38.7188 11.8833 38.7188Z" stroke="#C0CF64" stroke-width="2" stroke-linecap="round" stroke-linejoin="round"/>
</svg>
