<svg width="111" height="111" viewBox="0 0 111 111" fill="none" xmlns="http://www.w3.org/2000/svg">
<g clip-path="url(#clip0_131_145)">
<path d="M94.9941 31.1378L92.8942 16.7993L79.9032 10.38L69.7859 0L55.5001 2.45414L41.2143 0L31.0973 10.38L18.1062 16.7993L16.0059 31.1378L9.28062 43.9704L16.0059 56.8033L18.1058 71.1415L29.764 76.9025V106.358L40.9617 101.5V111L55.4999 105.198L70.038 111V101.5L81.2358 106.358V76.9022L92.894 71.1413L94.9943 56.8028L101.72 43.9702L94.9941 31.1378ZM40.962 94.2967L36.3715 96.2888V82.9723L40.962 87.6822V94.2967ZM63.431 98.6326V101.249L55.5001 98.0843L47.5693 101.249V98.6326V86.8539L55.5001 85.487L63.431 86.8539V98.6326ZM74.6287 96.2888L70.0383 94.2969V87.6822L74.6287 82.9721V96.2888ZM88.6197 54.7324L86.8588 66.7538L75.9614 72.1386L67.4798 80.8406L55.8919 78.8502L55.4999 78.7825L55.0947 78.8523L43.5199 80.8406L35.0384 72.1384L24.1409 66.7536L22.3803 54.7322L16.7402 43.9704L22.3803 33.2087L24.1412 21.1871L35.0386 15.8023L43.5202 7.1003L55.5001 9.15813L67.4801 7.1003L75.9616 15.8023L86.8591 21.1871L88.6197 33.2087L94.2598 43.9704L88.6197 54.7324Z" fill="#C0CF64"/>
<path d="M55.5001 14.6422C39.3288 14.6422 26.1723 27.7987 26.1723 43.9702C26.1723 60.1417 39.3286 73.2982 55.5001 73.2982C71.6716 73.2982 84.8279 60.1417 84.8279 43.9702C84.8279 27.7987 71.6714 14.6422 55.5001 14.6422ZM55.5001 66.6914C42.9719 66.6914 32.7794 56.4989 32.7794 43.9704C32.7794 31.442 42.9719 21.2495 55.5001 21.2495C68.0283 21.2495 78.2208 31.4422 78.2208 43.9704C78.2208 56.4987 68.0283 66.6914 55.5001 66.6914Z" fill="#C0CF64"/>
</g>
<defs>
<clipPath id="clip0_131_145">
<rect width="111" height="111" fill="white"/>
</clipPath>
</defs>
</svg>
