<svg width="34" height="34" viewBox="0 0 34 34" fill="none" xmlns="http://www.w3.org/2000/svg">
<path d="M17.697 1.09334C19.4363 1.06677 21.1629 1.08058 22.8883 1.06677C22.9457 3.22471 23.8212 5.16696 25.2142 6.60559L25.212 6.60346C26.7112 7.9539 28.662 8.8294 30.8125 8.97815L30.8422 8.98027V14.331C28.8107 14.28 26.9004 13.8115 25.178 13.0061L25.2652 13.0422C24.4322 12.6416 23.7277 12.2305 23.0583 11.7715L23.1136 11.8076C23.1009 15.6846 23.1264 19.5617 23.087 23.425C22.9776 25.3938 22.3231 27.1894 21.2733 28.6886L21.2946 28.6556C19.5394 31.1695 16.6961 32.8196 13.4629 32.9173H13.448C13.3174 32.9237 13.1633 32.9269 13.0082 32.9269C11.17 32.9269 9.45198 32.4148 7.98785 31.5255L8.03035 31.5499C5.3656 29.9466 3.52748 27.2032 3.18748 24.0125L3.18323 23.969C3.15666 23.3049 3.14391 22.6408 3.17048 21.9906C3.6911 16.9129 7.94535 12.9848 13.1165 12.9848C13.6977 12.9848 14.2672 13.0348 14.8208 13.1293L14.7613 13.1208C14.7879 15.0854 14.7082 17.051 14.7082 19.0156C14.2587 18.853 13.7402 18.7585 13.1994 18.7585C11.2147 18.7585 9.52635 20.0271 8.9016 21.7983L8.89204 21.8301C8.75073 22.2838 8.66891 22.8055 8.66891 23.3453C8.66891 23.5641 8.68273 23.7809 8.70823 23.9934L8.7061 23.9679C9.05885 26.1418 10.9225 27.7823 13.1697 27.7823C13.2345 27.7823 13.2982 27.7812 13.362 27.778H13.3524C14.9069 27.7313 16.2562 26.8951 17.0191 25.6594L17.0297 25.6403C17.3134 25.245 17.5079 24.7669 17.5727 24.2473L17.5737 24.2325C17.7065 21.8556 17.6534 19.4926 17.6662 17.1158C17.6789 11.7651 17.6534 6.42708 17.6927 1.09015L17.697 1.09334Z" fill="#E35A5A"/>
</svg>
