<svg width="186" height="87" viewBox="0 0 186 87" fill="none" xmlns="http://www.w3.org/2000/svg">
<path fill-rule="evenodd" clip-rule="evenodd" d="M1.05023 61.5826L0 57.9068C0 57.9068 0.630141 44.0437 0.840187 43.4135C1.05023 42.7834 5.04112 32.2811 9.03201 28.0801C13.0229 23.8792 19.7444 18.2079 21.3198 18.1029C21.6753 18.0792 22.3679 17.788 23.3723 17.3657C26.8177 15.9171 33.9314 12.9261 43.6897 13.902C55.346 15.0676 63.3188 20.9049 66.7773 23.437L66.7775 23.4372C67.0583 23.6427 67.3093 23.8265 67.5301 23.9842C69.4543 25.3587 72.6827 30.9153 75.3319 35.4751C76.7312 37.8836 77.969 40.014 78.7676 41.103C80.616 43.6236 81.7082 51.3953 82.0233 54.9661C82.2333 58.1518 81.2251 64.9224 75.5118 66.5187C68.3703 68.5142 56.5026 70.0895 51.6715 70.5096C47.8067 70.8457 32.8373 70.6496 25.8358 70.5096C18.8342 69.8444 5.88131 67.1488 5.25117 66.3087C5.07356 66.0718 4.84589 65.9518 4.55876 65.8005C3.82716 65.4149 2.70952 64.8257 1.05023 61.5826ZM24.8326 24.5847C24.1247 24.3358 23.349 24.7079 23.1001 25.4159C22.8512 26.1238 23.2233 26.8995 23.9313 27.1483L24.4045 27.3147C25.614 27.74 26.4088 28.0218 26.9937 28.3087C27.5431 28.5783 27.7852 28.7965 27.9448 29.0299C28.1083 29.2692 28.2345 29.5979 28.3058 30.2561C28.3804 30.945 28.3822 31.8421 28.3822 33.1826V37.896C28.3822 43.2251 28.4968 44.9837 30.0664 46.6394C31.636 48.2949 34.1623 48.2949 39.2148 48.2949H48.8219C51.6499 48.2949 53.0638 48.2949 54.0633 47.4804C55.0628 46.6658 55.3483 45.281 55.9192 42.5112L56.8247 38.1184L56.8248 38.1175C57.4535 34.9675 57.7679 33.3924 56.9636 32.347C56.1594 31.3016 53.4115 31.3016 50.3589 31.3016H31.0862C31.0741 30.8118 31.0511 30.3663 31.0075 29.9637C30.9102 29.0644 30.6992 28.2443 30.1884 27.4967C29.6736 26.7433 28.989 26.2608 28.1908 25.8691C27.4442 25.5028 26.4956 25.1693 25.3786 24.7767L24.8326 24.5847ZM32.9117 53.0414C34.4126 53.0414 35.6292 54.2581 35.6292 55.7589C35.6292 57.2597 34.4126 58.4764 32.9117 58.4764C31.4109 58.4764 30.1943 57.2597 30.1943 55.7589C30.1943 54.2581 31.4109 53.0414 32.9117 53.0414ZM51.9341 55.7591C51.9341 54.2581 50.7174 53.0416 49.2166 53.0416C47.7158 53.0416 46.4991 54.2581 46.4991 55.7591C46.4991 57.2598 47.7158 58.4765 49.2166 58.4765C50.7174 58.4765 51.9341 57.2598 51.9341 55.7591Z" fill="#E35A5A"/>
<path d="M88.8919 38.176C88.8919 37.1413 88.8973 35.9147 88.9079 34.496C88.9293 33.0667 88.9506 31.5627 88.9719 29.984C89.0039 28.3947 89.0359 26.832 89.0679 25.296C89.1106 23.76 89.1479 22.352 89.1799 21.072C89.2226 19.792 89.2599 18.7573 89.2919 17.968C89.6333 17.936 90.0226 17.9093 90.4599 17.888C90.9079 17.8667 91.3506 17.8507 91.7879 17.84C92.2253 17.8187 92.5986 17.808 92.9079 17.808C93.2279 17.808 93.4146 17.808 93.4679 17.808C93.4786 17.8507 93.5693 18.1547 93.7399 18.72C93.9213 19.2747 94.1506 20.0053 94.4279 20.912C94.7053 21.8187 95.0039 22.8213 95.3239 23.92C95.6546 25.0187 95.9853 26.1333 96.3159 27.264C96.6466 28.384 96.9559 29.4507 97.2439 30.464C97.5319 31.4667 97.7666 32.3307 97.9479 33.056C98.1293 33.7707 98.2359 34.2667 98.2679 34.544L97.8839 34.576C98.0119 34.2133 98.2093 33.6213 98.4759 32.8C98.7533 31.968 99.0626 31.0027 99.4039 29.904C99.7559 28.7947 100.119 27.6373 100.492 26.432C100.865 25.2267 101.223 24.0533 101.564 22.912C101.916 21.7707 102.215 20.752 102.46 19.856C102.716 18.96 102.897 18.272 103.004 17.792C103.303 17.792 103.681 17.8027 104.14 17.824C104.609 17.8453 105.073 17.872 105.532 17.904C106.001 17.9253 106.375 17.9627 106.652 18.016C106.865 19.0187 107.009 20.352 107.084 22.016C107.159 23.6693 107.196 25.4133 107.196 27.248C107.196 28.5813 107.185 29.9413 107.164 31.328C107.143 32.704 107.111 33.984 107.068 35.168C107.025 36.3413 106.972 37.3013 106.908 38.048C106.577 38.048 106.215 38.0373 105.82 38.016C105.425 38.0053 105.047 37.9893 104.684 37.968C104.332 37.936 104.039 37.9147 103.804 37.904C103.911 36.848 103.985 35.6373 104.028 34.272C104.081 32.9067 104.113 31.5147 104.124 30.096C104.135 29.2213 104.14 28.3147 104.14 27.376C104.14 26.4267 104.14 25.552 104.14 24.752C104.14 23.9413 104.14 23.328 104.14 22.912C104.012 23.424 103.809 24.1173 103.532 24.992C103.265 25.8667 102.956 26.8373 102.604 27.904C102.263 28.96 101.905 30.032 101.532 31.12C101.169 32.208 100.817 33.2373 100.476 34.208C100.135 35.168 99.8359 35.984 99.5799 36.656C99.3346 37.328 99.1533 37.7707 99.0359 37.984C98.9186 37.9947 98.7586 38 98.5559 38C98.3533 38.0107 98.1773 38.016 98.0279 38.016C97.8146 38.016 97.5906 38.0053 97.3559 37.984C97.1319 37.9627 96.8973 37.9413 96.6519 37.92C96.6306 37.824 96.5506 37.5253 96.4119 37.024C96.2733 36.512 96.0919 35.856 95.8679 35.056C95.6439 34.2453 95.3933 33.36 95.1159 32.4C94.8386 31.4293 94.5559 30.4373 94.2679 29.424C93.9799 28.4107 93.6973 27.4347 93.4199 26.496C93.1533 25.5467 92.9079 24.6987 92.6839 23.952C92.4706 23.2053 92.2999 22.6187 92.1719 22.192C92.1719 23.2587 92.1719 24.4533 92.1719 25.776C92.1719 27.088 92.1719 28.416 92.1719 29.76C92.1719 31.104 92.1666 32.3627 92.1559 33.536C92.1559 34.7093 92.1559 35.7067 92.1559 36.528C92.1559 37.3387 92.1559 37.8613 92.1559 38.096C91.9106 38.1067 91.6013 38.1173 91.2279 38.128C90.8546 38.1387 90.4599 38.1493 90.0439 38.16C89.6386 38.1707 89.2546 38.176 88.8919 38.176ZM119.962 38.816C117.903 38.816 116.213 38.336 114.89 37.376C113.578 36.416 112.607 35.12 111.978 33.488C111.349 31.856 111.034 30.0373 111.034 28.032C111.034 25.8453 111.365 23.9147 112.026 22.24C112.698 20.5653 113.695 19.2533 115.018 18.304C116.341 17.3547 117.989 16.88 119.962 16.88C121.583 16.88 122.959 17.184 124.09 17.792C125.231 18.3893 126.154 19.216 126.858 20.272C127.573 21.3173 128.09 22.5173 128.41 23.872C128.741 25.216 128.906 26.6293 128.906 28.112C128.906 29.552 128.73 30.9173 128.378 32.208C128.037 33.4987 127.503 34.64 126.778 35.632C126.053 36.6133 125.125 37.392 123.994 37.968C122.863 38.5333 121.519 38.816 119.962 38.816ZM119.914 35.632C121.333 35.632 122.485 35.28 123.37 34.576C124.255 33.8613 124.901 32.9227 125.306 31.76C125.722 30.5973 125.93 29.3333 125.93 27.968C125.93 26.9227 125.834 25.904 125.642 24.912C125.461 23.92 125.146 23.0293 124.698 22.24C124.261 21.44 123.674 20.8053 122.938 20.336C122.202 19.8667 121.279 19.632 120.17 19.632C118.805 19.632 117.685 20.0053 116.81 20.752C115.946 21.488 115.311 22.496 114.906 23.776C114.501 25.0453 114.298 26.48 114.298 28.08C114.298 29.456 114.495 30.72 114.89 31.872C115.295 33.0133 115.914 33.9253 116.746 34.608C117.578 35.2907 118.634 35.632 119.914 35.632ZM148.13 33.824C147.597 34.5813 146.952 35.2907 146.194 35.952C145.437 36.6027 144.573 37.136 143.602 37.552C142.642 37.9573 141.565 38.16 140.37 38.16C139.026 38.16 137.826 37.8827 136.77 37.328C135.725 36.7627 134.834 35.984 134.098 34.992C133.373 34 132.818 32.848 132.434 31.536C132.061 30.2133 131.874 28.7947 131.874 27.28C131.874 25.3067 132.2 23.5307 132.85 21.952C133.501 20.3627 134.461 19.104 135.73 18.176C137.01 17.248 138.568 16.784 140.402 16.784C141.938 16.784 143.357 17.1253 144.658 17.808C145.96 18.4907 146.946 19.44 147.618 20.656C147.448 20.848 147.208 21.072 146.898 21.328C146.589 21.584 146.274 21.8293 145.954 22.064C145.645 22.288 145.378 22.4693 145.154 22.608C145.08 22.448 144.941 22.208 144.738 21.888C144.546 21.568 144.264 21.2427 143.89 20.912C143.528 20.5813 143.053 20.2987 142.466 20.064C141.88 19.8187 141.16 19.696 140.306 19.696C139.688 19.696 139.085 19.8453 138.498 20.144C137.912 20.432 137.384 20.88 136.914 21.488C136.445 22.0853 136.072 22.864 135.794 23.824C135.517 24.7733 135.378 25.904 135.378 27.216C135.378 28.2933 135.506 29.3013 135.762 30.24C136.018 31.1787 136.37 32 136.818 32.704C137.266 33.408 137.789 33.9573 138.386 34.352C138.984 34.7467 139.629 34.944 140.322 34.944C141.208 34.944 141.997 34.768 142.69 34.416C143.394 34.0533 144.002 33.616 144.514 33.104C145.037 32.5813 145.48 32.0907 145.842 31.632C146.066 31.7707 146.333 31.9733 146.642 32.24C146.952 32.5067 147.24 32.784 147.506 33.072C147.784 33.3493 147.992 33.6 148.13 33.824ZM151.71 37.984C151.667 37.5147 151.614 36.8 151.55 35.84C151.486 34.88 151.427 33.7707 151.374 32.512C151.32 31.2533 151.267 29.936 151.214 28.56C151.171 27.1733 151.134 25.8133 151.102 24.48C151.08 23.136 151.07 21.9093 151.07 20.8C151.07 20.1067 151.075 19.4773 151.086 18.912C151.107 18.336 151.134 17.8613 151.166 17.488C151.262 17.4773 151.443 17.4613 151.71 17.44C151.987 17.4187 152.296 17.4027 152.638 17.392C152.979 17.3707 153.31 17.3547 153.63 17.344C153.96 17.3333 154.232 17.328 154.446 17.328C154.403 17.9147 154.371 18.5867 154.35 19.344C154.339 20.0907 154.334 20.8107 154.334 21.504C154.334 22.4853 154.344 23.4187 154.366 24.304C154.387 25.1787 154.403 25.744 154.414 26C154.648 25.9787 154.979 25.9573 155.406 25.936C155.832 25.904 156.302 25.8773 156.814 25.856C157.336 25.824 157.854 25.7973 158.366 25.776C158.878 25.744 159.347 25.7227 159.774 25.712C160.2 25.6907 160.526 25.68 160.75 25.68C160.771 25.2213 160.792 24.6347 160.814 23.92C160.835 23.2053 160.862 22.4427 160.894 21.632C160.926 20.8107 160.958 20.0053 160.99 19.216C161.032 18.4267 161.07 17.7333 161.102 17.136C161.251 17.1253 161.422 17.12 161.614 17.12C161.816 17.1093 162.024 17.104 162.238 17.104C162.664 17.104 163.091 17.1147 163.518 17.136C163.944 17.1573 164.264 17.184 164.478 17.216C164.414 17.6533 164.35 18.272 164.286 19.072C164.232 19.872 164.174 20.7893 164.11 21.824C164.056 22.848 164.008 23.936 163.966 25.088C163.923 26.24 163.886 27.392 163.854 28.544C163.822 29.696 163.8 30.7947 163.79 31.84C163.768 32.672 163.752 33.4773 163.742 34.256C163.731 35.024 163.72 35.7227 163.71 36.352C163.71 36.9813 163.715 37.4987 163.726 37.904C163.555 37.9253 163.299 37.9467 162.958 37.968C162.627 37.9787 162.264 37.9893 161.87 38C161.486 38 161.112 38 160.75 38C160.75 37.328 160.75 36.5653 160.75 35.712C160.75 34.8587 160.744 33.9947 160.734 33.12C160.734 32.2347 160.728 31.4027 160.718 30.624C160.718 29.8453 160.718 29.1893 160.718 28.656C160.504 28.6667 160.19 28.6773 159.774 28.688C159.358 28.688 158.894 28.6987 158.382 28.72C157.88 28.7307 157.374 28.7413 156.862 28.752C156.36 28.7627 155.902 28.7733 155.486 28.784C155.08 28.784 154.771 28.784 154.558 28.784C154.59 29.5627 154.627 30.4373 154.67 31.408C154.723 32.3787 154.771 33.328 154.814 34.256C154.867 35.1733 154.915 35.9627 154.958 36.624C155 37.2747 155.022 37.6747 155.022 37.824C154.872 37.8453 154.659 37.8667 154.382 37.888C154.104 37.9093 153.795 37.9307 153.454 37.952C153.123 37.9627 152.803 37.9733 152.494 37.984C152.184 37.984 151.923 37.984 151.71 37.984ZM172.746 38.144C172.5 38.144 172.186 38.1387 171.802 38.128C171.428 38.128 171.05 38.1173 170.666 38.096C170.292 38.0747 169.972 38.0427 169.706 38C169.684 37.2213 169.663 36.256 169.642 35.104C169.62 33.952 169.604 32.7467 169.594 31.488C169.583 30.2293 169.578 29.0773 169.578 28.032C169.578 26.5173 169.583 24.8213 169.594 22.944C169.615 21.056 169.636 19.056 169.658 16.944C169.775 16.9333 169.956 16.9227 170.202 16.912C170.447 16.9013 170.719 16.896 171.018 16.896C171.327 16.8853 171.626 16.88 171.914 16.88C172.202 16.8693 172.452 16.864 172.666 16.864C172.708 18.1653 172.746 19.5307 172.778 20.96C172.82 22.3893 172.852 23.7867 172.874 25.152C172.895 26.5173 172.906 27.76 172.906 28.88C172.906 29.3813 172.9 29.984 172.89 30.688C172.89 31.392 172.884 32.128 172.874 32.896C172.874 33.664 172.863 34.4053 172.842 35.12C172.831 35.824 172.815 36.448 172.794 36.992C172.783 37.5253 172.767 37.9093 172.746 38.144ZM103.427 70.192C102.425 70.192 101.47 70.048 100.563 69.76C99.6674 69.4613 98.8408 69.0773 98.0834 68.608C97.3368 68.128 96.6861 67.6053 96.1314 67.04C95.5768 66.4747 95.1554 65.92 94.8674 65.376C94.9314 65.2907 95.0541 65.1627 95.2354 64.992C95.4168 64.8107 95.6248 64.624 95.8594 64.432C96.0941 64.2293 96.3234 64.0427 96.5474 63.872C96.7821 63.6907 96.9741 63.5573 97.1234 63.472C97.3581 63.8027 97.6674 64.1973 98.0514 64.656C98.4354 65.1147 98.8888 65.568 99.4114 66.016C99.9448 66.4533 100.547 66.8213 101.219 67.12C101.902 67.408 102.649 67.552 103.459 67.552C104.483 67.552 105.31 67.36 105.939 66.976C106.569 66.5813 107.027 66.096 107.315 65.52C107.603 64.9333 107.747 64.352 107.747 63.776C107.747 63.232 107.603 62.752 107.315 62.336C107.027 61.92 106.633 61.552 106.131 61.232C105.63 60.9013 105.049 60.6027 104.387 60.336C103.726 60.0693 103.027 59.824 102.291 59.6C101.033 59.2053 99.9234 58.7573 98.9634 58.256C98.0034 57.7547 97.2514 57.1307 96.7074 56.384C96.1634 55.6373 95.8914 54.6987 95.8914 53.568C95.8914 52.416 96.2061 51.4613 96.8354 50.704C97.4648 49.936 98.3021 49.3653 99.3474 48.992C100.393 48.608 101.523 48.416 102.739 48.416C103.859 48.416 104.905 48.5653 105.875 48.864C106.857 49.1627 107.71 49.536 108.435 49.984C109.161 50.4213 109.699 50.8693 110.051 51.328C109.955 51.4773 109.801 51.6907 109.587 51.968C109.374 52.2453 109.15 52.5173 108.915 52.784C108.691 53.0507 108.494 53.2587 108.323 53.408C108.035 53.088 107.619 52.736 107.075 52.352C106.542 51.9573 105.897 51.6213 105.139 51.344C104.393 51.056 103.534 50.912 102.563 50.912C101.497 50.912 100.643 51.168 100.003 51.68C99.3634 52.1813 99.0434 52.8587 99.0434 53.712C99.0434 54.1707 99.1554 54.5653 99.3794 54.896C99.6034 55.2267 99.8968 55.5093 100.259 55.744C100.622 55.968 101.022 56.1653 101.459 56.336C101.897 56.5067 102.334 56.6507 102.771 56.768C103.827 57.088 104.841 57.424 105.811 57.776C106.793 58.128 107.667 58.5493 108.435 59.04C109.214 59.5307 109.827 60.1387 110.275 60.864C110.723 61.5787 110.947 62.4587 110.947 63.504C110.947 64.3787 110.777 65.216 110.435 66.016C110.094 66.816 109.598 67.5307 108.947 68.16C108.307 68.7893 107.523 69.2853 106.595 69.648C105.667 70.0107 104.611 70.192 103.427 70.192ZM115.241 69.984C115.198 69.5147 115.145 68.8 115.081 67.84C115.017 66.88 114.958 65.7707 114.905 64.512C114.852 63.2533 114.798 61.936 114.745 60.56C114.702 59.1733 114.665 57.8133 114.633 56.48C114.612 55.136 114.601 53.9093 114.601 52.8C114.601 52.1067 114.606 51.4773 114.617 50.912C114.638 50.336 114.665 49.8613 114.697 49.488C114.793 49.4773 114.974 49.4613 115.241 49.44C115.518 49.4187 115.828 49.4027 116.169 49.392C116.51 49.3707 116.841 49.3547 117.161 49.344C117.492 49.3333 117.764 49.328 117.977 49.328C117.934 49.9147 117.902 50.5867 117.881 51.344C117.87 52.0907 117.865 52.8107 117.865 53.504C117.865 54.4853 117.876 55.4187 117.897 56.304C117.918 57.1787 117.934 57.744 117.945 58C118.18 57.9787 118.51 57.9573 118.937 57.936C119.364 57.904 119.833 57.8773 120.345 57.856C120.868 57.824 121.385 57.7973 121.897 57.776C122.409 57.744 122.878 57.7227 123.305 57.712C123.732 57.6907 124.057 57.68 124.281 57.68C124.302 57.2213 124.324 56.6347 124.345 55.92C124.366 55.2053 124.393 54.4427 124.425 53.632C124.457 52.8107 124.489 52.0053 124.521 51.216C124.564 50.4267 124.601 49.7333 124.633 49.136C124.782 49.1253 124.953 49.12 125.145 49.12C125.348 49.1093 125.556 49.104 125.769 49.104C126.196 49.104 126.622 49.1147 127.049 49.136C127.476 49.1573 127.796 49.184 128.009 49.216C127.945 49.6533 127.881 50.272 127.817 51.072C127.764 51.872 127.705 52.7893 127.641 53.824C127.588 54.848 127.54 55.936 127.497 57.088C127.454 58.24 127.417 59.392 127.385 60.544C127.353 61.696 127.332 62.7947 127.321 63.84C127.3 64.672 127.284 65.4773 127.273 66.256C127.262 67.024 127.252 67.7227 127.241 68.352C127.241 68.9813 127.246 69.4987 127.257 69.904C127.086 69.9253 126.83 69.9467 126.489 69.968C126.158 69.9787 125.796 69.9893 125.401 70C125.017 70 124.644 70 124.281 70C124.281 69.328 124.281 68.5653 124.281 67.712C124.281 66.8587 124.276 65.9947 124.265 65.12C124.265 64.2347 124.26 63.4027 124.249 62.624C124.249 61.8453 124.249 61.1893 124.249 60.656C124.036 60.6667 123.721 60.6773 123.305 60.688C122.889 60.688 122.425 60.6987 121.913 60.72C121.412 60.7307 120.905 60.7413 120.393 60.752C119.892 60.7627 119.433 60.7733 119.017 60.784C118.612 60.784 118.302 60.784 118.089 60.784C118.121 61.5627 118.158 62.4373 118.201 63.408C118.254 64.3787 118.302 65.328 118.345 66.256C118.398 67.1733 118.446 67.9627 118.489 68.624C118.532 69.2747 118.553 69.6747 118.553 69.824C118.404 69.8453 118.19 69.8667 117.913 69.888C117.636 69.9093 117.326 69.9307 116.985 69.952C116.654 69.9627 116.334 69.9733 116.025 69.984C115.716 69.984 115.454 69.984 115.241 69.984ZM140.837 70.816C138.778 70.816 137.088 70.336 135.765 69.376C134.453 68.416 133.482 67.12 132.853 65.488C132.224 63.856 131.909 62.0373 131.909 60.032C131.909 57.8453 132.24 55.9147 132.901 54.24C133.573 52.5653 134.57 51.2533 135.893 50.304C137.216 49.3547 138.864 48.88 140.837 48.88C142.458 48.88 143.834 49.184 144.965 49.792C146.106 50.3893 147.029 51.216 147.733 52.272C148.448 53.3173 148.965 54.5173 149.285 55.872C149.616 57.216 149.781 58.6293 149.781 60.112C149.781 61.552 149.605 62.9173 149.253 64.208C148.912 65.4987 148.378 66.64 147.653 67.632C146.928 68.6133 146 69.392 144.869 69.968C143.738 70.5333 142.394 70.816 140.837 70.816ZM140.789 67.632C142.208 67.632 143.36 67.28 144.245 66.576C145.13 65.8613 145.776 64.9227 146.181 63.76C146.597 62.5973 146.805 61.3333 146.805 59.968C146.805 58.9227 146.709 57.904 146.517 56.912C146.336 55.92 146.021 55.0293 145.573 54.24C145.136 53.44 144.549 52.8053 143.813 52.336C143.077 51.8667 142.154 51.632 141.045 51.632C139.68 51.632 138.56 52.0053 137.685 52.752C136.821 53.488 136.186 54.496 135.781 55.776C135.376 57.0453 135.173 58.48 135.173 60.08C135.173 61.456 135.37 62.72 135.765 63.872C136.17 65.0133 136.789 65.9253 137.621 66.608C138.453 67.2907 139.509 67.632 140.789 67.632ZM153.549 70.288C153.549 69.712 153.555 68.992 153.565 68.128C153.587 67.2533 153.608 66.2933 153.629 65.248C153.661 64.192 153.693 63.0933 153.725 61.952C153.757 60.8 153.795 59.648 153.837 58.496C153.88 57.3333 153.923 56.2187 153.965 55.152C154.008 54.0853 154.051 53.1093 154.093 52.224C154.136 51.3387 154.179 50.592 154.221 49.984C155.032 49.8133 155.901 49.6747 156.829 49.568C157.768 49.4613 158.819 49.408 159.981 49.408C161.315 49.408 162.467 49.5893 163.437 49.952C164.408 50.304 165.155 50.8587 165.677 51.616C166.2 52.3733 166.461 53.344 166.461 54.528C166.461 55.8933 166.2 57.0293 165.677 57.936C165.165 58.832 164.403 59.4987 163.389 59.936C162.387 60.3733 161.149 60.592 159.677 60.592C159.283 60.592 158.845 60.576 158.365 60.544C157.896 60.5013 157.469 60.4427 157.085 60.368C157.075 60.6987 157.059 61.232 157.037 61.968C157.016 62.6933 156.989 63.536 156.957 64.496C156.936 65.456 156.915 66.448 156.893 67.472C156.872 68.496 156.861 69.4613 156.861 70.368C156.68 70.368 156.44 70.3627 156.141 70.352C155.843 70.352 155.528 70.3467 155.197 70.336C154.877 70.336 154.568 70.3253 154.269 70.304C153.981 70.2933 153.741 70.288 153.549 70.288ZM157.069 57.664C157.421 57.7173 157.816 57.7653 158.253 57.808C158.691 57.8507 159.133 57.872 159.581 57.872C160.285 57.872 160.952 57.776 161.581 57.584C162.211 57.3813 162.723 57.0453 163.117 56.576C163.523 56.1067 163.725 55.456 163.725 54.624C163.725 53.5573 163.4 52.8213 162.749 52.416C162.109 52.0107 161.261 51.808 160.205 51.808C159.8 51.808 159.347 51.8293 158.845 51.872C158.344 51.9147 157.789 51.9733 157.181 52.048C157.181 52.112 157.176 52.3307 157.165 52.704C157.165 53.0667 157.16 53.4987 157.149 54C157.149 54.5013 157.144 55.0133 157.133 55.536C157.123 56.048 157.112 56.5013 157.101 56.896C157.091 57.2907 157.08 57.5467 157.069 57.664Z" fill="#E35A5A"/>
</svg>
